<svg height="480pt" viewBox="0 0 480 480" width="480pt" xmlns="http://www.w3.org/2000/svg"><path d="m240 8c-128.128906 0-232 103.871094-232 232s103.871094 232 232 232 232-103.871094 232-232-103.871094-232-232-232zm-24 304-80-64 80 64 144-144zm0 0" fill="#55c9f4"/><g fill="#006d95"><path d="m354.34375 162.34375-138.9375 138.9375-74.398438-59.527344c-3.449218-2.761718-8.488281-2.203125-11.246093 1.246094-2.761719 3.449219-2.203125 8.488281 1.246093 11.246094l80 64c3.183594 2.550781 7.773438 2.292968 10.65625-.589844l144-144c3.03125-3.140625 2.988282-8.128906-.097656-11.214844-3.085937-3.085937-8.074218-3.128906-11.214844-.097656zm0 0"/><path d="m240 0c-132.546875 0-240 107.453125-240 240s107.453125 240 240 240 240-107.453125 240-240c-.148438-132.484375-107.515625-239.851562-240-240zm0 464c-123.710938 0-224-100.289062-224-224s100.289062-224 224-224 224 100.289062 224 224c-.140625 123.652344-100.347656 223.859375-224 224zm0 0"/></g></svg>